<mxfile host="app.diagrams.net" modified="2021-11-02T13:52:52.489Z" agent="5.0 (Macintosh; Intel Mac OS X 10_15_5) AppleWebKit/537.36 (KHTML, like Gecko) Chrome/94.0.4606.81 Safari/537.36" etag="ISL9zWgFG-fHy3mvtCqe" version="15.5.5" type="github">
  <diagram id="SEAIYqwF87A7cVQ8-DyG" name="Page-1">
    <mxGraphModel dx="2360" dy="1413" grid="1" gridSize="10" guides="1" tooltips="1" connect="1" arrows="1" fold="1" page="1" pageScale="1" pageWidth="827" pageHeight="1169" math="0" shadow="0">
      <root>
        <mxCell id="0" />
        <mxCell id="1" parent="0" />
        <mxCell id="4mUIY2rEQ8cqmVcWi5z4-1" value="" style="shape=parallelogram;perimeter=parallelogramPerimeter;whiteSpace=wrap;html=1;fixedSize=1;rotation=327;" parent="1" vertex="1">
          <mxGeometry x="31.06" y="80.18" width="48.42" height="30" as="geometry" />
        </mxCell>
        <mxCell id="-y09qwYfMfObH2Hs8NJf-27" value="" style="shape=parallelogram;perimeter=parallelogramPerimeter;whiteSpace=wrap;html=1;fixedSize=1;rotation=327;" vertex="1" parent="1">
          <mxGeometry x="55" y="64.61" width="48.42" height="30" as="geometry" />
        </mxCell>
        <mxCell id="-y09qwYfMfObH2Hs8NJf-38" value="" style="shape=parallelogram;perimeter=parallelogramPerimeter;whiteSpace=wrap;html=1;fixedSize=1;rotation=327;" vertex="1" parent="1">
          <mxGeometry x="30.18879997518412" y="152.34576955689516" width="48.42" height="30" as="geometry" />
        </mxCell>
        <mxCell id="-y09qwYfMfObH2Hs8NJf-39" value="" style="shape=parallelogram;perimeter=parallelogramPerimeter;whiteSpace=wrap;html=1;fixedSize=1;rotation=327;" vertex="1" parent="1">
          <mxGeometry x="54.12879997518412" y="136.77576955689517" width="48.42" height="30" as="geometry" />
        </mxCell>
        <mxCell id="-y09qwYfMfObH2Hs8NJf-42" value="" style="shape=parallelogram;perimeter=parallelogramPerimeter;whiteSpace=wrap;html=1;fixedSize=1;rotation=327;" vertex="1" parent="1">
          <mxGeometry x="29.75379997518412" y="188.34576955689516" width="48.42" height="30" as="geometry" />
        </mxCell>
        <mxCell id="-y09qwYfMfObH2Hs8NJf-43" value="" style="shape=parallelogram;perimeter=parallelogramPerimeter;whiteSpace=wrap;html=1;fixedSize=1;rotation=327;" vertex="1" parent="1">
          <mxGeometry x="53.69379997518412" y="172.77576955689517" width="48.42" height="30" as="geometry" />
        </mxCell>
        <mxCell id="-y09qwYfMfObH2Hs8NJf-29" value="" style="shape=parallelogram;perimeter=parallelogramPerimeter;whiteSpace=wrap;html=1;fixedSize=1;rotation=327;" vertex="1" parent="1">
          <mxGeometry x="30.62379997518412" y="116.34576955689516" width="48.42" height="30" as="geometry" />
        </mxCell>
        <mxCell id="-y09qwYfMfObH2Hs8NJf-30" value="" style="shape=parallelogram;perimeter=parallelogramPerimeter;whiteSpace=wrap;html=1;fixedSize=1;rotation=327;" vertex="1" parent="1">
          <mxGeometry x="54.56379997518412" y="100.77576955689516" width="48.42" height="30" as="geometry" />
        </mxCell>
        <mxCell id="-y09qwYfMfObH2Hs8NJf-46" value="" style="shape=parallelogram;perimeter=parallelogramPerimeter;whiteSpace=wrap;html=1;fixedSize=1;rotation=327;" vertex="1" parent="1">
          <mxGeometry x="155.14" y="76.34" width="48.42" height="30" as="geometry" />
        </mxCell>
        <mxCell id="-y09qwYfMfObH2Hs8NJf-47" value="" style="shape=parallelogram;perimeter=parallelogramPerimeter;whiteSpace=wrap;html=1;fixedSize=1;rotation=327;" vertex="1" parent="1">
          <mxGeometry x="179.07999999999998" y="60.77" width="48.42" height="30" as="geometry" />
        </mxCell>
        <mxCell id="-y09qwYfMfObH2Hs8NJf-48" value="" style="shape=parallelogram;perimeter=parallelogramPerimeter;whiteSpace=wrap;html=1;fixedSize=1;rotation=327;" vertex="1" parent="1">
          <mxGeometry x="154.26879997518412" y="148.5057695568952" width="48.42" height="30" as="geometry" />
        </mxCell>
        <mxCell id="-y09qwYfMfObH2Hs8NJf-49" value="" style="shape=parallelogram;perimeter=parallelogramPerimeter;whiteSpace=wrap;html=1;fixedSize=1;rotation=327;" vertex="1" parent="1">
          <mxGeometry x="178.20879997518412" y="132.9357695568952" width="48.42" height="30" as="geometry" />
        </mxCell>
        <mxCell id="-y09qwYfMfObH2Hs8NJf-50" value="" style="shape=parallelogram;perimeter=parallelogramPerimeter;whiteSpace=wrap;html=1;fixedSize=1;rotation=327;" vertex="1" parent="1">
          <mxGeometry x="154.7037999751841" y="112.50576955689516" width="48.42" height="30" as="geometry" />
        </mxCell>
        <mxCell id="-y09qwYfMfObH2Hs8NJf-51" value="" style="shape=parallelogram;perimeter=parallelogramPerimeter;whiteSpace=wrap;html=1;fixedSize=1;rotation=327;" vertex="1" parent="1">
          <mxGeometry x="178.6437999751841" y="96.93576955689517" width="48.42" height="30" as="geometry" />
        </mxCell>
        <mxCell id="-y09qwYfMfObH2Hs8NJf-53" value="" style="shape=parallelogram;perimeter=parallelogramPerimeter;whiteSpace=wrap;html=1;fixedSize=1;rotation=327;" vertex="1" parent="1">
          <mxGeometry x="270.44" y="76.34" width="48.42" height="30" as="geometry" />
        </mxCell>
        <mxCell id="-y09qwYfMfObH2Hs8NJf-54" value="" style="shape=parallelogram;perimeter=parallelogramPerimeter;whiteSpace=wrap;html=1;fixedSize=1;rotation=327;" vertex="1" parent="1">
          <mxGeometry x="294.38" y="60.77000000000001" width="48.42" height="30" as="geometry" />
        </mxCell>
        <mxCell id="-y09qwYfMfObH2Hs8NJf-55" value="" style="shape=parallelogram;perimeter=parallelogramPerimeter;whiteSpace=wrap;html=1;fixedSize=1;rotation=327;" vertex="1" parent="1">
          <mxGeometry x="270.0037999751841" y="112.50576955689516" width="48.42" height="30" as="geometry" />
        </mxCell>
        <mxCell id="-y09qwYfMfObH2Hs8NJf-56" value="" style="shape=parallelogram;perimeter=parallelogramPerimeter;whiteSpace=wrap;html=1;fixedSize=1;rotation=327;" vertex="1" parent="1">
          <mxGeometry x="293.9437999751841" y="96.93576955689517" width="48.42" height="30" as="geometry" />
        </mxCell>
      </root>
    </mxGraphModel>
  </diagram>
</mxfile>
